<svg xmlns="http://www.w3.org/2000/svg" xmlns:xlink="http://www.w3.org/1999/xlink" width="500" zoomAndPan="magnify" viewBox="0 0 375 374.999991" height="500" preserveAspectRatio="xMidYMid meet" version="1.0"><defs><clipPath id="7334c6d277"><path d="M 12.199219 10.902344 L 365.394531 10.902344 L 365.394531 364.097656 L 12.199219 364.097656 Z M 12.199219 10.902344 " clip-rule="nonzero"/></clipPath><clipPath id="86ac6ab537"><path d="M 188.796875 10.902344 C 91.261719 10.902344 12.199219 89.96875 12.199219 187.5 C 12.199219 285.03125 91.261719 364.097656 188.796875 364.097656 C 286.328125 364.097656 365.394531 285.03125 365.394531 187.5 C 365.394531 89.96875 286.328125 10.902344 188.796875 10.902344 Z M 188.796875 10.902344 " clip-rule="nonzero"/></clipPath><clipPath id="7b04b780c4"><path d="M 0.199219 0.902344 L 353.394531 0.902344 L 353.394531 354.097656 L 0.199219 354.097656 Z M 0.199219 0.902344 " clip-rule="nonzero"/></clipPath><clipPath id="f5e7b0fc9a"><path d="M 176.796875 0.902344 C 79.261719 0.902344 0.199219 79.96875 0.199219 177.5 C 0.199219 275.03125 79.261719 354.097656 176.796875 354.097656 C 274.328125 354.097656 353.394531 275.03125 353.394531 177.5 C 353.394531 79.96875 274.328125 0.902344 176.796875 0.902344 Z M 176.796875 0.902344 " clip-rule="nonzero"/></clipPath><clipPath id="810cbe3a47"><rect x="0" width="354" y="0" height="355"/></clipPath><clipPath id="505436f2ae"><path d="M 116.085938 224.527344 L 186.203125 224.527344 L 186.203125 294.648438 L 116.085938 294.648438 Z M 116.085938 224.527344 " clip-rule="nonzero"/></clipPath><clipPath id="524d5557fb"><path d="M 0.0859375 0.527344 L 70.203125 0.527344 L 70.203125 70.648438 L 0.0859375 70.648438 Z M 0.0859375 0.527344 " clip-rule="nonzero"/></clipPath><clipPath id="41016cd723"><rect x="0" width="71" y="0" height="71"/></clipPath><clipPath id="528317b58f"><path d="M 117.242188 80.351562 L 186.203125 80.351562 L 186.203125 149.316406 L 117.242188 149.316406 Z M 117.242188 80.351562 " clip-rule="nonzero"/></clipPath><clipPath id="05d6e60de4"><path d="M 151.722656 80.351562 C 132.679688 80.351562 117.242188 95.792969 117.242188 114.835938 C 117.242188 133.878906 132.679688 149.316406 151.722656 149.316406 C 170.765625 149.316406 186.203125 133.878906 186.203125 114.835938 C 186.203125 95.792969 170.765625 80.351562 151.722656 80.351562 Z M 151.722656 80.351562 " clip-rule="nonzero"/></clipPath><clipPath id="2465e402ae"><path d="M 0.242188 0.351562 L 69.203125 0.351562 L 69.203125 69.316406 L 0.242188 69.316406 Z M 0.242188 0.351562 " clip-rule="nonzero"/></clipPath><clipPath id="89a5ff2a99"><path d="M 34.722656 0.351562 C 15.679688 0.351562 0.242188 15.792969 0.242188 34.835938 C 0.242188 53.878906 15.679688 69.316406 34.722656 69.316406 C 53.765625 69.316406 69.203125 53.878906 69.203125 34.835938 C 69.203125 15.792969 53.765625 0.351562 34.722656 0.351562 Z M 34.722656 0.351562 " clip-rule="nonzero"/></clipPath><clipPath id="f4a1913676"><rect x="0" width="70" y="0" height="70"/></clipPath><clipPath id="61aa2deb7d"><path d="M 116 151.808594 L 186.203125 151.808594 L 186.203125 221.929688 L 116 221.929688 Z M 116 151.808594 " clip-rule="nonzero"/></clipPath><clipPath id="26739b53c8"><path d="M 186.203125 221.929688 C 167.738281 221.929688 149.679688 214.449219 136.621094 201.390625 C 123.5625 188.332031 116.085938 170.277344 116.085938 151.808594 L 186.203125 151.808594 Z M 186.203125 221.929688 " clip-rule="nonzero"/></clipPath><clipPath id="78a673efcf"><path d="M 0 0.808594 L 70.203125 0.808594 L 70.203125 70.929688 L 0 70.929688 Z M 0 0.808594 " clip-rule="nonzero"/></clipPath><clipPath id="f9d6c237ad"><path d="M 70.203125 70.929688 C 51.738281 70.929688 33.679688 63.449219 20.621094 50.390625 C 7.5625 37.332031 0.0859375 19.277344 0.0859375 0.808594 L 70.203125 0.808594 Z M 70.203125 70.929688 " clip-rule="nonzero"/></clipPath><clipPath id="6ea293a26b"><rect x="0" width="71" y="0" height="71"/></clipPath><clipPath id="4c03572092"><path d="M 188.523438 224.523438 L 258.914062 224.523438 L 258.914062 294.640625 L 188.523438 294.640625 Z M 188.523438 224.523438 " clip-rule="nonzero"/></clipPath><clipPath id="cb39bba7d6"><path d="M 258.914062 294.640625 C 240.449219 294.640625 222.390625 287.160156 209.332031 274.101562 C 196.277344 261.046875 188.796875 242.988281 188.796875 224.523438 L 258.914062 224.523438 Z M 258.914062 294.640625 " clip-rule="nonzero"/></clipPath><clipPath id="36acd629d7"><path d="M 0.640625 0.523438 L 70.914062 0.523438 L 70.914062 70.640625 L 0.640625 70.640625 Z M 0.640625 0.523438 " clip-rule="nonzero"/></clipPath><clipPath id="de2740bc42"><path d="M 70.914062 70.640625 C 52.449219 70.640625 34.390625 63.160156 21.332031 50.101562 C 8.277344 37.046875 0.796875 18.988281 0.796875 0.523438 L 70.914062 0.523438 Z M 70.914062 70.640625 " clip-rule="nonzero"/></clipPath><clipPath id="8107778a61"><rect x="0" width="71" y="0" height="71"/></clipPath><clipPath id="f0e64279b9"><path d="M 188.792969 80.355469 L 260.96875 80.355469 L 260.96875 222 L 188.792969 222 Z M 188.792969 80.355469 " clip-rule="nonzero"/></clipPath><clipPath id="9df6bd8eae"><path d="M 188.792969 221.9375 C 228.105469 221.9375 260.96875 189.703125 260.96875 151.144531 C 260.96875 112.585938 228.105469 80.355469 188.792969 80.355469 Z M 188.792969 221.9375 " clip-rule="nonzero"/></clipPath><clipPath id="be0c69caeb"><path d="M 0.792969 0.355469 L 72.96875 0.355469 L 72.96875 142 L 0.792969 142 Z M 0.792969 0.355469 " clip-rule="nonzero"/></clipPath><clipPath id="a3a329674a"><path d="M 0.792969 141.9375 C 40.105469 141.9375 72.96875 109.703125 72.96875 71.144531 C 72.96875 32.585938 40.105469 0.355469 0.792969 0.355469 Z M 0.792969 141.9375 " clip-rule="nonzero"/></clipPath><clipPath id="842a0f6dab"><rect x="0" width="73" y="0" height="142"/></clipPath></defs><g clip-path="url(#7334c6d277)"><g clip-path="url(#86ac6ab537)"><g transform="matrix(1, 0, 0, 1, 12, 10)"><g clip-path="url(#810cbe3a47)"><g clip-path="url(#7b04b780c4)"><g clip-path="url(#f5e7b0fc9a)"><path fill="#000000" d="M 0.199219 0.902344 L 353.394531 0.902344 L 353.394531 354.097656 L 0.199219 354.097656 Z M 0.199219 0.902344 " fill-opacity="1" fill-rule="nonzero"/></g></g></g></g></g></g><g clip-path="url(#505436f2ae)"><g transform="matrix(1, 0, 0, 1, 116, 224)"><g clip-path="url(#41016cd723)"><g clip-path="url(#524d5557fb)"><path fill="#ffffff" d="M 0.0859375 0.527344 L 70.203125 0.527344 L 70.203125 70.648438 L 0.0859375 70.648438 Z M 0.0859375 0.527344 " fill-opacity="1" fill-rule="nonzero"/></g></g></g></g><g clip-path="url(#528317b58f)"><g clip-path="url(#05d6e60de4)"><g transform="matrix(1, 0, 0, 1, 117, 80)"><g clip-path="url(#f4a1913676)"><g clip-path="url(#2465e402ae)"><g clip-path="url(#89a5ff2a99)"><path fill="#ffffff" d="M 0.242188 0.351562 L 69.203125 0.351562 L 69.203125 69.316406 L 0.242188 69.316406 Z M 0.242188 0.351562 " fill-opacity="1" fill-rule="nonzero"/></g></g></g></g></g></g><g clip-path="url(#61aa2deb7d)"><g clip-path="url(#26739b53c8)"><g transform="matrix(1, 0, 0, 1, 116, 151)"><g clip-path="url(#6ea293a26b)"><g clip-path="url(#78a673efcf)"><g clip-path="url(#f9d6c237ad)"><path fill="#ffffff" d="M 0.0859375 70.929688 L 0.0859375 0.808594 L 70.203125 0.808594 L 70.203125 70.929688 Z M 0.0859375 70.929688 " fill-opacity="1" fill-rule="nonzero"/></g></g></g></g></g></g><g clip-path="url(#4c03572092)"><g clip-path="url(#cb39bba7d6)"><g transform="matrix(1, 0, 0, 1, 188, 224)"><g clip-path="url(#8107778a61)"><g clip-path="url(#36acd629d7)"><g clip-path="url(#de2740bc42)"><path fill="#ffffff" d="M 0.796875 70.640625 L 0.796875 0.523438 L 70.914062 0.523438 L 70.914062 70.640625 Z M 0.796875 70.640625 " fill-opacity="1" fill-rule="nonzero"/></g></g></g></g></g></g><g clip-path="url(#f0e64279b9)"><g clip-path="url(#9df6bd8eae)"><g transform="matrix(1, 0, 0, 1, 188, 80)"><g clip-path="url(#842a0f6dab)"><g clip-path="url(#be0c69caeb)"><g clip-path="url(#a3a329674a)"><path fill="#ffffff" d="M 72.96875 0.355469 L 72.96875 141.894531 L 0.792969 141.894531 L 0.792969 0.355469 Z M 72.96875 0.355469 " fill-opacity="1" fill-rule="nonzero"/></g></g></g></g></g></g></svg>